<svg width="1368" height="319" viewBox="0 0 1368 319" fill="none" xmlns="http://www.w3.org/2000/svg">
<path d="M1062.69 314.341C1062.69 316.822 1064.71 318.832 1067.2 318.832H1232.54C1307.69 318.832 1368.48 257.991 1368 183.254V8.95262C1367.98 6.48377 1364.85 4.49069 1362.36 4.49069L1203.89 4.49042C1201.39 4.49042 1199.36 6.5633 1199.44 9.04231C1202.22 103.185 1291.34 113.877 1301.27 113.877C1311.36 113.877 1310.35 126.92 1301.27 126.92C1292.31 126.92 1185.55 123.503 1182.78 9.06008C1182.72 6.58072 1180.7 4.49042 1178.21 4.49042H1055.88C1053.54 4.49042 1052.12 7.08211 1053.28 9.1021C1093.92 79.621 1058.78 99.9493 1089.4 149.481C1120.68 200.076 1194.28 195.341 1216.85 178.875C1239.43 162.41 1246.2 175.881 1230.65 190.134C1215.46 204.054 1159.71 224.642 1069.24 183.05C1066.21 181.658 1062.69 183.82 1062.69 187.138V314.341Z" fill="#FF3B27"/>
<path d="M872.145 128.236C886.887 204.576 1018.3 213.719 1051.91 135.957C1082.31 65.6295 1043.54 14.9804 1035.85 5.9376C1035.05 4.99373 1033.92 4.49069 1032.68 4.49069C999.218 4.49069 938.235 4.49043 894.631 4.49042C861.024 4.49042 826.468 8.89232 800.092 29.6044C773.647 50.3711 745.023 85.443 745.023 139.971C745.023 251.411 819.094 296.938 854.154 312.245C865.854 317.353 878.612 318.832 891.39 318.832H1045.89C1048.38 318.832 1050.41 316.822 1050.41 314.341V187.147C1050.41 183.585 1046.42 181.424 1043.33 183.231C965.923 228.558 880.996 203.419 857.011 145.489C832.293 85.7874 895.458 43.187 909.079 38.1701C922.699 33.1531 927.13 46.1537 917.546 52.6758C907.961 59.1978 862.067 76.0507 872.145 128.236Z" fill="#FF3B27"/>
<path d="M0 81.9888C-5.34542e-05 172.715 84.1887 149.409 128.214 179.367C172.239 209.324 160.654 263.711 152.157 269.857C143.661 276.002 135.014 267.218 138.466 258.538C177.646 160.011 6.17898 133.815 6.17896 241.356C6.17895 296.007 66.1201 315.308 77.0743 318.378C78.213 318.698 79.3799 318.832 80.5629 318.832H268.977C272.192 318.832 275.31 317.825 277.726 315.714C288.557 306.253 318.812 275.586 318.812 228.272C318.812 130.975 198.673 128.73 156.53 69.1118C147.499 56.3357 164.199 43.6007 172.75 59.126C219.369 143.767 351.567 99.5127 297.747 6.73701C296.957 5.37492 295.447 4.49042 293.866 4.49042H77.9246C34.8881 4.49042 2.52177e-05 39.1876 0 81.9888Z" fill="#FF3B27"/>
<path fill-rule="evenodd" clip-rule="evenodd" d="M306.419 318.832H530.188C532.681 318.832 534.716 316.811 534.575 314.335C531.895 267.209 487.738 231.324 463.734 211.816C457.356 206.633 452.401 202.606 450.024 199.831C438.422 186.286 450.024 178.875 458.095 187.791C466.167 196.706 484.942 213.303 530.057 213.303C642.264 213.303 642.677 4.49069 491.825 4.49069L315.542 4.49042C312.304 4.49042 310.132 7.81637 311.37 10.7922C362.457 133.661 355.046 228.598 302.571 311.799C300.657 314.833 302.818 318.832 306.419 318.832ZM444.807 150.355H452.644C454.488 150.355 455.891 148.689 455.647 146.871C447.085 83.1127 477.85 58.6561 488.025 50.5679C488.123 50.4896 488.22 50.4128 488.314 50.3376C498.355 42.3488 488.394 30.3658 477.581 38.8154C466.898 47.1636 429.826 81.0052 441.865 147.901C442.119 149.311 443.366 150.355 444.807 150.355Z" fill="#FF3B27"/>
<path d="M663.79 109.149C662.314 102.41 655.09 88.9633 623.954 71.9701C546.21 29.5394 632.972 -40.983 687.226 30.824C687.749 31.516 688.806 31.6464 689.486 31.1063C743.617 -11.8843 798.217 67.2336 723.793 89.4859C696.026 97.788 687.434 107.098 684.795 112.41L728.234 119.154C730.806 119.553 732.498 122.035 732.019 124.579C718.088 198.612 760.91 271.731 819.287 309.521C823.256 312.09 821.485 318.832 816.75 318.832H549.837C547.343 318.832 545.318 316.829 545.343 314.349C545.675 281.756 550.146 239.765 583.225 213.303C616.092 187.011 625.894 147.226 620.854 108.512C620.458 105.469 623.076 102.829 626.125 103.302L663.79 109.149Z" fill="#FF3B27"/>
</svg>
